<mxfile host="app.diagrams.net" agent="Mozilla/5.0 (Macintosh; Intel Mac OS X 10_15_7) AppleWebKit/537.36 (KHTML, like Gecko) Chrome/126.0.0.0 Safari/537.36" version="24.7.10">
  <diagram name="第 1 页" id="tgMQHVBDHuroJmxmnegw">
    <mxGraphModel dx="1242" dy="743" grid="1" gridSize="10" guides="1" tooltips="1" connect="1" arrows="1" fold="1" page="1" pageScale="1" pageWidth="1654" pageHeight="1169" math="0" shadow="0">
      <root>
        <mxCell id="0" />
        <mxCell id="1" parent="0" />
        <mxCell id="X7fMvcYtnIwSlndWAkHu-51" value="" style="rounded=0;whiteSpace=wrap;html=1;dashed=1;fillColor=none;fontFamily=Tahoma;" parent="1" vertex="1">
          <mxGeometry x="50" y="40" width="600" height="101" as="geometry" />
        </mxCell>
        <mxCell id="5ok6LgYU1fo5nk2AM2nL-2" style="edgeStyle=orthogonalEdgeStyle;rounded=0;orthogonalLoop=1;jettySize=auto;html=1;exitX=1;exitY=0.5;exitDx=0;exitDy=0;entryX=0;entryY=0.5;entryDx=0;entryDy=0;" edge="1" parent="1" source="X7fMvcYtnIwSlndWAkHu-61" target="4xmi2rFlR5mBMx5Cte2i-7">
          <mxGeometry relative="1" as="geometry" />
        </mxCell>
        <mxCell id="X7fMvcYtnIwSlndWAkHu-61" value="" style="rounded=0;whiteSpace=wrap;html=1;fillColor=none;dashed=1;" parent="1" vertex="1">
          <mxGeometry x="604" y="201" width="430" height="310" as="geometry" />
        </mxCell>
        <mxCell id="X7fMvcYtnIwSlndWAkHu-3" value="Peers" style="strokeWidth=2;html=1;shape=mxgraph.flowchart.database;whiteSpace=wrap;fillColor=#1ba1e2;fontColor=#ffffff;strokeColor=#006EAF;fontFamily=Tahoma;" parent="1" vertex="1">
          <mxGeometry x="43" y="274" width="60" height="60" as="geometry" />
        </mxCell>
        <mxCell id="X7fMvcYtnIwSlndWAkHu-43" value="Headers" style="strokeWidth=2;html=1;shape=mxgraph.flowchart.database;whiteSpace=wrap;fillColor=#1ba1e2;fontColor=#ffffff;strokeColor=#006EAF;fontFamily=Tahoma;" parent="1" vertex="1">
          <mxGeometry x="120" y="674" width="60" height="60" as="geometry" />
        </mxCell>
        <mxCell id="X7fMvcYtnIwSlndWAkHu-44" value="Blocks" style="strokeWidth=2;html=1;shape=mxgraph.flowchart.database;whiteSpace=wrap;fillColor=#1ba1e2;fontColor=#ffffff;strokeColor=#006EAF;fontFamily=Tahoma;" parent="1" vertex="1">
          <mxGeometry x="213" y="674" width="58" height="60" as="geometry" />
        </mxCell>
        <mxCell id="X7fMvcYtnIwSlndWAkHu-45" value="Coins" style="strokeWidth=2;html=1;shape=mxgraph.flowchart.database;whiteSpace=wrap;fillColor=#1ba1e2;fontColor=#ffffff;strokeColor=#006EAF;fontFamily=Tahoma;" parent="1" vertex="1">
          <mxGeometry x="302" y="674" width="60" height="60" as="geometry" />
        </mxCell>
        <mxCell id="X7fMvcYtnIwSlndWAkHu-47" style="edgeStyle=orthogonalEdgeStyle;rounded=1;orthogonalLoop=1;jettySize=auto;html=1;exitX=0.5;exitY=1;exitDx=0;exitDy=0;entryX=0.5;entryY=0;entryDx=0;entryDy=0;entryPerimeter=0;curved=0;fontFamily=Tahoma;" parent="1" target="X7fMvcYtnIwSlndWAkHu-43" edge="1">
          <mxGeometry relative="1" as="geometry">
            <mxPoint x="242" y="594" as="sourcePoint" />
          </mxGeometry>
        </mxCell>
        <mxCell id="X7fMvcYtnIwSlndWAkHu-48" style="edgeStyle=orthogonalEdgeStyle;rounded=1;orthogonalLoop=1;jettySize=auto;html=1;exitX=0.5;exitY=1;exitDx=0;exitDy=0;entryX=0.5;entryY=0;entryDx=0;entryDy=0;entryPerimeter=0;curved=0;fontFamily=Tahoma;" parent="1" target="X7fMvcYtnIwSlndWAkHu-45" edge="1">
          <mxGeometry relative="1" as="geometry">
            <mxPoint x="242" y="594" as="sourcePoint" />
          </mxGeometry>
        </mxCell>
        <mxCell id="X7fMvcYtnIwSlndWAkHu-49" value="" style="endArrow=classic;startArrow=classic;html=1;rounded=0;exitX=0.5;exitY=0;exitDx=0;exitDy=0;exitPerimeter=0;entryX=0.5;entryY=1;entryDx=0;entryDy=0;fontFamily=Tahoma;" parent="1" source="X7fMvcYtnIwSlndWAkHu-44" edge="1">
          <mxGeometry width="50" height="50" relative="1" as="geometry">
            <mxPoint x="190" y="644" as="sourcePoint" />
            <mxPoint x="242" y="569" as="targetPoint" />
          </mxGeometry>
        </mxCell>
        <mxCell id="X7fMvcYtnIwSlndWAkHu-54" value="P2P Network" style="ellipse;shape=cloud;whiteSpace=wrap;html=1;fillColor=#dae8fc;strokeColor=#6c8ebf;fontFamily=Tahoma;" parent="1" vertex="1">
          <mxGeometry x="93" y="10" width="120" height="80" as="geometry" />
        </mxCell>
        <mxCell id="X7fMvcYtnIwSlndWAkHu-55" value="" style="endArrow=classic;startArrow=classic;html=1;rounded=0;exitX=0.5;exitY=0;exitDx=0;exitDy=0;entryX=0.5;entryY=0.988;entryDx=0;entryDy=0;entryPerimeter=0;" parent="1" target="X7fMvcYtnIwSlndWAkHu-54" edge="1">
          <mxGeometry width="50" height="50" relative="1" as="geometry">
            <mxPoint x="153" y="144" as="sourcePoint" />
            <mxPoint x="160" y="80" as="targetPoint" />
          </mxGeometry>
        </mxCell>
        <mxCell id="X7fMvcYtnIwSlndWAkHu-62" value="rocksdb/leveldb" style="text;strokeColor=none;align=center;fillColor=none;html=1;verticalAlign=middle;whiteSpace=wrap;rounded=0;fontFamily=Tahoma;fontSize=16;" parent="1" vertex="1">
          <mxGeometry x="370" y="650" width="86" height="40" as="geometry" />
        </mxCell>
        <mxCell id="5ok6LgYU1fo5nk2AM2nL-9" style="edgeStyle=orthogonalEdgeStyle;rounded=0;orthogonalLoop=1;jettySize=auto;html=1;exitX=1;exitY=0.5;exitDx=0;exitDy=0;entryX=0.5;entryY=0;entryDx=0;entryDy=0;" edge="1" parent="1" source="M2bukFVJOcPTOaZUWw6n-1" target="4xmi2rFlR5mBMx5Cte2i-2">
          <mxGeometry relative="1" as="geometry" />
        </mxCell>
        <mxCell id="5ok6LgYU1fo5nk2AM2nL-10" value="3 切换主节点" style="edgeLabel;html=1;align=center;verticalAlign=middle;resizable=0;points=[];fontSize=13;" vertex="1" connectable="0" parent="5ok6LgYU1fo5nk2AM2nL-9">
          <mxGeometry x="0.0571" y="2" relative="1" as="geometry">
            <mxPoint as="offset" />
          </mxGeometry>
        </mxCell>
        <mxCell id="M2bukFVJOcPTOaZUWw6n-1" value="Maxwell(主节点)" style="rounded=0;whiteSpace=wrap;html=1;fillColor=#dae8fc;strokeColor=#6c8ebf;shadow=1;fontFamily=Tahoma;" parent="1" vertex="1">
          <mxGeometry x="754" y="251" width="120" height="60" as="geometry" />
        </mxCell>
        <mxCell id="5ok6LgYU1fo5nk2AM2nL-4" style="edgeStyle=orthogonalEdgeStyle;rounded=0;orthogonalLoop=1;jettySize=auto;html=1;exitX=1;exitY=0.5;exitDx=0;exitDy=0;exitPerimeter=0;dashed=1;" edge="1" parent="1" source="biFFm7S5w4ii-SgIbjmA-2" target="4xmi2rFlR5mBMx5Cte2i-3">
          <mxGeometry relative="1" as="geometry" />
        </mxCell>
        <mxCell id="5ok6LgYU1fo5nk2AM2nL-6" value="·1 实时复制数据到Mysql 8" style="edgeLabel;html=1;align=center;verticalAlign=middle;resizable=0;points=[];fontSize=13;" vertex="1" connectable="0" parent="5ok6LgYU1fo5nk2AM2nL-4">
          <mxGeometry x="-0.2083" y="1" relative="1" as="geometry">
            <mxPoint as="offset" />
          </mxGeometry>
        </mxCell>
        <mxCell id="biFFm7S5w4ii-SgIbjmA-2" value="Mysql 5" style="strokeWidth=2;html=1;shape=mxgraph.flowchart.database;whiteSpace=wrap;fillColor=#1ba1e2;fontColor=#ffffff;strokeColor=#006EAF;fontFamily=Tahoma;" parent="1" vertex="1">
          <mxGeometry x="650" y="635" width="70" height="70" as="geometry" />
        </mxCell>
        <mxCell id="4xmi2rFlR5mBMx5Cte2i-1" value="Maxwell(从节点)" style="rounded=0;whiteSpace=wrap;html=1;fillColor=#dae8fc;strokeColor=#6c8ebf;shadow=1;fontFamily=Tahoma;" parent="1" vertex="1">
          <mxGeometry x="631" y="371" width="120" height="60" as="geometry" />
        </mxCell>
        <mxCell id="4xmi2rFlR5mBMx5Cte2i-2" value="Maxwell(从节点变新主节点)" style="rounded=0;whiteSpace=wrap;html=1;fillColor=#dae8fc;strokeColor=#6c8ebf;shadow=1;fontFamily=Tahoma;" parent="1" vertex="1">
          <mxGeometry x="864" y="371" width="120" height="60" as="geometry" />
        </mxCell>
        <mxCell id="4xmi2rFlR5mBMx5Cte2i-3" value="Mysql 8" style="strokeWidth=2;html=1;shape=mxgraph.flowchart.database;whiteSpace=wrap;fillColor=#1ba1e2;fontColor=#ffffff;strokeColor=#006EAF;fontFamily=Tahoma;" parent="1" vertex="1">
          <mxGeometry x="960" y="635" width="70" height="70" as="geometry" />
        </mxCell>
        <mxCell id="4xmi2rFlR5mBMx5Cte2i-7" value="Apollo" style="rounded=0;whiteSpace=wrap;html=1;fillColor=#f8cecc;strokeColor=#b85450;shadow=1;fontFamily=Tahoma;" parent="1" vertex="1">
          <mxGeometry x="1240" y="325.5" width="110" height="61" as="geometry" />
        </mxCell>
        <mxCell id="5ok6LgYU1fo5nk2AM2nL-3" style="edgeStyle=orthogonalEdgeStyle;rounded=0;orthogonalLoop=1;jettySize=auto;html=1;exitX=0.5;exitY=1;exitDx=0;exitDy=0;entryX=0.5;entryY=0;entryDx=0;entryDy=0;entryPerimeter=0;" edge="1" parent="1" source="M2bukFVJOcPTOaZUWw6n-1" target="biFFm7S5w4ii-SgIbjmA-2">
          <mxGeometry relative="1" as="geometry">
            <Array as="points">
              <mxPoint x="814" y="530" />
              <mxPoint x="685" y="530" />
            </Array>
          </mxGeometry>
        </mxCell>
        <mxCell id="5ok6LgYU1fo5nk2AM2nL-7" value="" style="endArrow=classic;html=1;rounded=0;entryX=0.5;entryY=0;entryDx=0;entryDy=0;" edge="1" parent="1" target="4xmi2rFlR5mBMx5Cte2i-7">
          <mxGeometry width="50" height="50" relative="1" as="geometry">
            <mxPoint x="1295" y="200" as="sourcePoint" />
            <mxPoint x="1310" y="150" as="targetPoint" />
          </mxGeometry>
        </mxCell>
        <mxCell id="5ok6LgYU1fo5nk2AM2nL-8" value="2 修改maxwell连接的元数据库地址，从Mysql5变Mysql8" style="edgeLabel;html=1;align=center;verticalAlign=middle;resizable=0;points=[];fontSize=13;" vertex="1" connectable="0" parent="5ok6LgYU1fo5nk2AM2nL-7">
          <mxGeometry x="-0.49" y="-3" relative="1" as="geometry">
            <mxPoint as="offset" />
          </mxGeometry>
        </mxCell>
        <mxCell id="5ok6LgYU1fo5nk2AM2nL-11" style="edgeStyle=orthogonalEdgeStyle;rounded=0;orthogonalLoop=1;jettySize=auto;html=1;exitX=0.5;exitY=1;exitDx=0;exitDy=0;entryX=0.5;entryY=0;entryDx=0;entryDy=0;entryPerimeter=0;" edge="1" parent="1" source="4xmi2rFlR5mBMx5Cte2i-2" target="4xmi2rFlR5mBMx5Cte2i-3">
          <mxGeometry relative="1" as="geometry" />
        </mxCell>
        <mxCell id="5ok6LgYU1fo5nk2AM2nL-12" value="4 初始化连接到最新的Mysql 8" style="edgeLabel;html=1;align=center;verticalAlign=middle;resizable=0;points=[];fontSize=13;" vertex="1" connectable="0" parent="5ok6LgYU1fo5nk2AM2nL-11">
          <mxGeometry x="-0.2073" y="1" relative="1" as="geometry">
            <mxPoint as="offset" />
          </mxGeometry>
        </mxCell>
      </root>
    </mxGraphModel>
  </diagram>
</mxfile>
